<svg width="48" height="66" viewBox="0 0 48 66" fill="none" xmlns="http://www.w3.org/2000/svg">
<path d="M39.7168 23.875C41.4716 26.9146 42.9354 29.9826 44.1051 32.9996C42.9353 36.0169 41.4715 39.0852 39.7164 42.125C35.1943 49.9575 29.542 56.2102 23.9116 60.1613C18.2813 56.2102 12.6289 49.9575 8.10683 42.125C6.35178 39.0852 4.88794 36.0169 3.71817 32.9996C4.88789 29.9826 6.35163 26.9146 8.10653 23.875C12.6287 16.0423 18.2812 9.7896 23.9116 5.83849C29.5421 9.7896 35.1946 16.0423 39.7168 23.875ZM40.1495 42.375C41.8169 39.4869 43.2247 36.571 44.3695 33.694C46.2893 38.8304 47.3515 43.8005 47.5421 48.2093C47.8534 55.4127 45.8395 61.0432 41.5368 63.5274C37.2341 66.0116 31.3509 64.9404 25.2683 61.069C24.9624 60.8744 24.6561 60.6727 24.3498 60.4641C30.0001 56.4585 35.6383 50.1885 40.1495 42.375ZM7.67382 42.375C12.1849 50.1885 17.8232 56.4585 23.4735 60.4641C23.1671 60.6727 22.8609 60.8744 22.555 61.069C16.4723 64.9404 10.5892 66.0116 6.28649 63.5274C1.98377 61.0432 -0.030109 55.4127 0.281221 48.2093C0.471767 43.8005 1.53402 38.8304 3.45377 33.694C4.59859 36.571 6.0064 39.4869 7.67382 42.375ZM22.5553 4.93095C22.8611 5.12557 23.1672 5.32718 23.4735 5.53565C17.8231 9.54122 12.1847 15.8113 7.67351 23.625C6.00625 26.5128 4.59854 29.4285 3.45378 32.3052C1.53422 27.1691 0.472062 22.1993 0.281526 17.7907C-0.0298038 10.5873 1.98408 4.95678 6.28679 2.4726C10.5895 -0.0115692 16.4726 1.05963 22.5553 4.93095ZM24.3498 5.53565C24.6561 5.32717 24.9622 5.12556 25.268 4.93094C31.3506 1.05962 37.2338 -0.0115806 41.5365 2.47259C45.8392 4.95677 47.8531 10.5873 47.5418 17.7907C47.3512 22.1992 46.2891 27.1691 44.3695 32.3052C43.2247 29.4285 41.817 26.5128 40.1498 23.625C35.6386 15.8113 30.0002 9.54122 24.3498 5.53565Z" stroke="#496C70" stroke-width="0.5"/>
</svg>
