<?xml version="1.0" encoding="UTF-8"?><svg id="Layer_0_Image" data-name="Layer 0 Image" xmlns="http://www.w3.org/2000/svg" viewBox="0 0 800 600" x="0px" y="0px" width="800px" height="600px" version="1.1" xmlns:xlink="http://www.w3.org/1999/xlink"><title>1</title><path d="M199.694,348.485c-4.561-1.464-7.256.325-9.308,2.4-1.854,1.878-2.272,5.18-5.69,5.486.249,3.655-4.1,3.344-5.061,5.8-1.186,3.04-4.788,2.055-6.39,4.233,1.022,2.058,1.022,2.058-3.8,6.822-3.129,3.093-3.129,3.093-7.235,3.987-.262,1.456-.527,2.928-.826,4.585l-2.96-2.645,1.494,5.266c-2.283.074-4.582,2.39-7.621.559-.286-.173-2.028,2.07-3.405,3.519l-4.724-8.787a56.44,56.44,0,0,1,9.573-13.4c4.029-4.089,7.433-8.8,11.48-12.867,3.668-3.688,7.783-6.942,11.8-10.273,3.825-3.175,6.264-7.925,11.193-9.834,4.081-8.353,13.949-10.172,19.363-17.244,2.823-3.689,7.511-5.891,12.073-7.443,1.9-.648,4.079-.488,6.131-.695l8.493,5.185c.394.3.8.589,1.184.9,5.713,4.5,5.9,4.57,3.573,10.885-1.45,3.938-3.562,7.632-5.414,11.514l-5.969.31c.7.9,1.315,1.348,1.429,1.9.777,3.717,1.111,7.363-2.7,9.835.564,4.622-3.932,6.854-5.076,10.774-1.1,3.769-3.1,7.278-4.722,10.893-.41.913-.9,1.791-1.385,2.763,2.295,1.9,4.028.465,5.819-1.345,6.6-6.666,13.265-13.264,19.879-19.914A141.32,141.32,0,0,1,258.573,336.5c1.3-.934,1.873-2.826,3.089-3.939,4.242-3.882,8.577-7.665,12.957-11.391,4.178-3.553,7.081-8.459,12.34-10.935,2.053-.967,3.246-3.646,5.241-4.887a19.645,19.645,0,0,0,3.959-3.854,43.947,43.947,0,0,1,10.215-8.186c1.906-1.082,2.185-5.111,5.663-3.395a70.636,70.636,0,0,1,4.65-5.952,133.493,133.493,0,0,1,18.49-15.439c4-2.887,7.559-6.38,11.317-9.6,7.514-6.443,14.907-13.035,22.574-19.291,10.17-8.3,20.5-16.4,30.862-24.459,8.89-6.918,17.667-14.023,26.94-20.4,13.635-9.373,26.293-20.035,40.049-29.283,10.711-7.2,21.423-14.536,31.758-22.228,10.826-8.057,22.338-15.024,33.235-22.927,7.076-5.133,15.022-9.047,22.355-13.848,6.3-4.128,13-7.606,19.239-11.821a19.873,19.873,0,0,1,2.57-1.25c2.232,3.927-.5,5.725-2.561,7.578-1.926,1.731-4.132,3.151-7.719,5.831,6.614-.974,9.831-4.365,13.41-6.823,1.982-1.361,3.456-2.149,5.992-.656l-1.652,3.352,7.873,1.917c-.774,1.8-1.795,3.04-1.515,3.815.317.88,1.8,1.339,2.857,2.035-.832,1.9-3.824,2.755-3.08,5.686.108.426-1.006,1.625-1.1,1.575-3.646-1.846-3.231,2.976-5.741,3.559-1.493.347-4.687.709-4.785,4-.013.421-3.315.316-4,1.255-.855,1.166-.653,3.051-2.946,2.548a2.747,2.747,0,0,0-1.5.094c-1.064,5.661-6.766,4.366-9.975,6.749-1.668,1.24-4.374,1.535-4.485,4.4-3.644-.442-2.256,5.7-5.878,4.733-3.491-.929-2.8,5.339-6.686,3.508-.268-.126-1.81,2.643-2.874,3.974-1.277,1.6-5.284-.778-4.9,3.326-2.115.717-4.2,1.889-6.352,2.047-3.331.243-4.718,1.667-4.7,4.9a2.479,2.479,0,0,1-1.092,1.888c-1.556.744-3.528.847-4.815,1.863-1.3,1.029-2.3,4.233-2.883,4.1-4.514-1.031-3.878,4.332-7.083,5.126l-4.308-2.145c-2.1,6.493-9.132,8.445-12.1,14.193a4.3,4.3,0,0,1-4.61,2.4c-4.609-.547-7.661,1.167-8.16,6.254-.087.893-.993,2.423-1.558,2.44-5.557.169-6.089,6.889-11.025,8.159-2.461.634-3.455,4.815-7.172,4.088-.244-.047-.684,1.129-1.1,1.686-.769,1.032-1.992,1.914-2.306,3.057-.888,3.226-4.658.055-5.828,2.949a14.592,14.592,0,0,1-3.764,4.84c-1.663,1.542-3.894,2.489-5.484,4.086-1.766,1.773-3.843,2.217-6.025,3.029-1.774.659-2.591,4.906-4.1,5.067-4.049.433-4.8,3.957-7.168,5.859-2.61,2.1-5.265,4.14-7.85,6.267-1.771,1.456-2.943,3.819-5.893,3.4-.371-.053-.812,1.55-1.464,2.093-2.52,2.1-3.644,6.044-7.916,5.932-.553-.014-1.085,1.283-1.718,1.874q-8.3,7.762-16.639,15.486c-4.144-.884-4.461,3.3-6.6,5.054-4.238,3.477-8.294,7.174-12.454,10.747a3.312,3.312,0,0,1-1.384.518c-7.211,1.688-7.211,1.685-12.125,6.487-2.663-.491-5.581-1.826-7.987-1.2-1.652.432-2.593,3.588-2.972,6.289l7.8-4.906c-1.435,3.312-3.8,4.25-3.755,5.448.105,2.571-1.948,1.892-2.924,2.775-7.045,6.369-13.917,12.931-21.023,19.23-1.847,1.637-1.977,5.762-6.006,4.508-2.29,3.376-7.363,4.715-7.226,9.873.006.243-.022.591-.176.718q-6.288,5.171-12.611,10.3c-3-.718-4.216,1.774-5.822,3.38-6.72,6.719-13.6,13.27-19.443,20.842-1.788,2.318-3.564,5.562-7.639,4.815-.471-.087-1.368.871-1.695,1.53-.88,1.769-1.139,4.058-2.432,5.351s-4.148,1.137-5.255,2.488a75,75,0,0,0-7.577,11.294c-2.037,3.695-6.62,7.717-11.17,8.719v4.932c-3.9,4.182-8.544,7.735-12.325,12.2a86.7,86.7,0,0,1-12.535,12.434c-3.467,2.7-6.919,4.935-7.811,9.6-.126.654-1.094,1.133-1.642,1.72-7.394,7.922-14.829,15.807-22.156,23.791-4.761,5.188-8.919,10.915-14.087,15.753-.638.6-.687,1.822-.991,2.7H154.62a14.007,14.007,0,0,0-1.614,3.319,9.24,9.24,0,0,1-5.562,7.345c-4.237,2.046-3.985,2.549-7.846.037-.623-.405-1.315-.7-1.977-1.046-2.281-1.18-3.726,3.321-6.273.866-1.936-1.866-3.532-.809-5.549.433s-2.987.43-6.713-3.105c.208-1.64.374-2.953.54-4.265a8.124,8.124,0,0,0-2.711.469,12.483,12.483,0,0,0-2.332,2.239c-.316-.3-.847-.55-.916-.9-.595-2.982-1.912-6.127-1.4-8.93.454-2.494,3.236-4.47,4.514-6.923,4.5-8.628,8.939-17.275,14.245-25.451,2.874-4.429,4.735-9.467,8.459-13.418,1.086-1.152.812-3.587,1.9-4.738,1.07-1.132,3.456-.971,2.877-3.6-.127-.574.486-1.39.9-1.993,3.715-5.37,6.717-11.217,10.4-16.55,2.881-4.174,5.359-8.527,7.905-12.86,3.3-5.617,7.833-10.489,10.125-16.716a1.555,1.555,0,0,1,.558-.569q2.636-2,5.284-3.983c-1.568-2.611.18-4.273,1.587-6.188,1.321-1.8,2-4.1,3.44-5.773,4.334-5.024,7.1-11.04,10.8-16.454C196.664,353.39,197.939,351.25,199.694,348.485Zm-3.12,63.725c3.47-4.058,6.662-8.4,10.461-12.124q21.374-20.946,43.1-41.537c6.688-6.363,12.415-13.739,20.3-18.871,2.418-1.574,4.306-4.015,6.283-6.2,1.956-2.159,5.365-2.311,6.472-6.05.645-2.179,4.28-3.4,6.417-5.226,3.559-3.046,7.2-6.125,10.519-9.293,8.357-7.99,18.429-14.126,25.512-23.466.321-.424.706-1.027,1.137-1.1,3.806-.653,5.187-4.272,7.848-6.309s5.333-4.065,7.855-6.264c5.143-4.483,9.883-9.5,15.381-13.479,3.645-2.638,6.59-5.938,10.08-8.615,8.4-6.444,16.8-12.864,24.807-19.82,3.115-2.7,6.034-5.968,9.537-7.941,6.554-3.69,11.705-9.063,17.73-13.359,8.381-5.976,15.944-13.1,24.343-19.05,7.91-5.6,15.572-11.518,23.4-17.217,6.987-5.086,14.067-10.045,21.107-15.06,6-4.275,12.022-8.529,18-12.845a23.173,23.173,0,0,0,2.55-2.515c-.674-.446-.99-.756-1.08-.7-3.419,2.115-7.137,3.9-10.126,6.514-2.9,2.535-7.829,2.124-9.242,6.593-6.616,4.738-13.252,9.447-19.842,14.221-7.019,5.084-14.071,10.129-20.964,15.381-5.745,4.379-10.961,9.525-16.987,13.446-8.6,5.6-16.363,12.245-24.484,18.432-6.807,5.185-12.97,11.22-19.813,16.352-8.266,6.2-16.433,12.482-24.117,19.394-3.68,3.31-7.209,6.918-11.334,9.571-5.707,3.671-10.239,8.661-15.612,12.681-4.168,3.117-7.852,6.879-11.972,10.069-.72.556-2.538-.306-4.448-.607.988,2.4.006,5.226-2.23,5.643-4.566.85-6.438,4.888-9.843,7.021-1.348.844-1.629,3.347-2.966,4.263a98.717,98.717,0,0,0-16.2,13.2c-1.559,1.644-2.381,4.068-4.086,5.471-2.907,2.39-7.382,3.583-9.111,6.512-2.087,3.533-6.1,4.932-7.695,8.685-.376.883-2.244,1.023-3.162,1.811-1.02.874-1.8,3.051-2.579,3-3.02-.183-4.71,1.9-5.633,3.748-1.215,2.439-2.64,5.217-4.785,5.842-3.361.98-2.862,4.587-5.478,5.907-3.182,1.606-5.541,4.487-8.273,6.766-2.929,2.443-4.844,6.058-7.535,8.839-6.71,6.934-13.611,13.684-20.434,20.508-2.844,2.843-5.752,5.626-8.511,8.549C198.5,405.486,196.633,408.322,196.574,412.21ZM135.438,461.7c1.623,0,3.092.363,3.364-.054,4.655-7.145,9.045-14.463,13.736-21.583,4.131-6.272,7.432-13.008,11.34-19.395,2.107-3.442,4.574-6.661,6.76-10.058,1.619-2.516,2.479-5.931,4.7-7.556,3.134-2.3,2.469-6.01,4.774-8.679,3.707-4.292,6.091-9.712,9.138-14.592,4.919-7.876,9.967-15.671,14.87-23.556,2.844-4.572,6.3-8.853,7.232-14.541a17.3,17.3,0,0,0-4.385,4.6c-3.317,5.3-6.422,10.726-9.708,16.042-1.593,2.576-3.46,4.982-5.1,7.528-1.766,2.733-3.419,5.54-5.121,8.314s-3.309,5.613-5.126,8.31c-3.779,5.609-7.6,11.182-10.378,17.386a25.473,25.473,0,0,1-1.517,2.584c-2.7,4.507-6.854,8.126-8.14,13.5a3.469,3.469,0,0,1-.965,1.975c-4.7,3.211-6.9,8.453-9.355,13.049-2.541,4.762-7.2,8.617-7.353,14.588-2.923.949-2.539,4.629-4.346,5.835C137.494,456.964,136.989,459.032,135.438,461.7Z"/><path d="M496.458,280.26c5.084-4.815,9.656-10.416,15.429-14.172,3.9-2.536,7.079-5.834,10.826-8.472,9.624-6.775,18.853-14.2,28.027-21.575,7.832-6.3,16.041-12.1,23.829-18.452A224.745,224.745,0,0,1,598.7,200.12c3.025-1.859,5.682-4.23,8.6-6.156,6.355-4.195,12.647-8.608,18.642-13.38,3.989-3.175,8.85-5.161,12.339-9.076a5.356,5.356,0,0,1,3.269-1.681c8.079-.57,12.606-7.2,18.775-10.964,4.783-2.918,8.888-6.927,13.565-10.048a22.792,22.792,0,0,1,8.209-3.33c1.682-.321,3.674.981,5.754,1.623-1.178,1.584-2.148,2.972-3.212,4.284a19.363,19.363,0,0,1-1.888,1.8l-6.139,4.921c-.8,2.216-2.228,3.593-4.718,3.1-2.743-.547-.813,4.221-4.193,3.366-2.358-.6-2.988,1.813-4.128,3.623-1.262,2-3.689,3.488-5.9,4.644-6.4,3.349-11.524,8.418-17.145,12.762-2.013,1.556-6.413-.257-6.21,4.251-2.984.254-4.224,4.348-6.145,4.271-4.8-.195-4.879,5-8.7,6.208-3.32,1.047-5.64,5.04-9.04,7.151-4.76,2.955-8.94,6.826-13.573,10.007-6.546,4.494-13.121,8.905-19.011,14.287-3.229,2.952-6.776,5.561-10.232,8.258-2.026,1.58-4.154,3.029-6.025,4.384-.692-.144-1.988-.7-2.2-.419-7.578,9.918-17.934,16.485-28.01,23.387-3.858,2.642-6.5,6.559-10.684,9.05-4.636,2.761-8.423,6.967-12.509,10.623-2.506,2.242-4.314,5.313-8.636,4.619-1.631-.262-2.668,1.662-3.243,3.723a8.334,8.334,0,0,1-5.369,5.648c-3.6,1.24-6.092,3.589-8.458,6.631a37.037,37.037,0,0,1-10.514,9.3c-3.781,2.217-5.556,7.051-10.178,8.474-.679.209-1.133,1.109-1.724,1.652-6.6,6.069-12.991,12.372-19.84,18.139-11.883,10.006-23.159,20.653-34.62,31.114-5.626,5.135-11.155,10.395-16.8,15.52-1.879,1.706-4.866,2.65-5.926,4.683-1.286,2.467-2.986,3.62-5.112,5.071-2.157,1.471-3.965,3.2-7.674,2.25l2.281,2.444-9.195,6.745,1.24,1.393c-1.593,1.147-3.085,2.647-4.889,3.4-1.821.759-3.952.777-7.249,1.343l5.123,2.9-8.284,4.262-3.093-2.911c-.76.759-1.517,1.517-2.388,2.388l3.427,1.609a10.879,10.879,0,0,1-.785,2.144,33.022,33.022,0,0,0-2.584,3.76c-1.269,2.871-1.173,2.884-5.9,4.82a4.056,4.056,0,0,0-1.7,1.681c-1.445,2.432-3.7,4.752-5.141,5.1.314.758,1.1,1.862.851,2.205-.627.856-2.078,1.168-2.575,2.049-2.1,3.733-3.265,8.378-8.976,8.055-1.706,2.241-3.018,5.049-5.22,6.574-2.5,1.73-1.034,5.792-2.76,5.944-3.922.346-1.594,3.3-2.72,4.617-2.864,2.908-5.97-3.847-9.09.227a31.681,31.681,0,0,1,7.83-16.488c5.7-6.086,10.651-12.73,15.954-19.11,5.288-6.361,11.651-11.823,17.474-17.746,1.827-1.858,3.433-3.932,5.14-5.907a20.2,20.2,0,0,0,8.095-5.652,23.125,23.125,0,0,1,4.576-4.463c1.918-1.189,1.057-4.231,4.332-4.811,2.157-.383,3.734-3.608,5.75-5.354,1.917-1.661,4.323-2.812,6.044-4.632,1.813-1.919,3.094-4.17,5.57-5.628a16.477,16.477,0,0,0,5.636-5.612c2.136-3.632,5.579-5.874,8.678-8.118,2.53-1.833,4.8-3.866,7.113-5.894,1.982-1.733,3.507-3.947,5.324-5.813,1.946-2,3.978-3.012,6.163-4.4,2.726-1.725,4.445-5,6.736-7.474,1.506-1.628,3.116-4.041,4.929-4.291,2.493-.344,3.49-2.09,5.227-3.062,2.271-1.27,1.815-4.893,4.9-5.226.57-3.888,4.827-2.64,6.705-4.83,2.7-3.151,5.653-6.089,8.54-9.164l1.223,1.384c2.4-2.893,4.715-5.715,7.063-8.512.433-.516,1.059-1.391,1.467-1.324,2.951.49,4.111-1.913,5.863-3.38,2.156-1.8,4-3.805,6.584-5.312a48.6,48.6,0,0,0,11.25-9.537,27.49,27.49,0,0,1,8.356-6.742C495.535,286.27,497.481,283.718,496.458,280.26Z"/><path d="M496.458,280.26c1.023,3.458-.923,6.01-3.466,7.272a27.49,27.49,0,0,0-8.356,6.742,48.6,48.6,0,0,1-11.25,9.537c-2.579,1.507-4.428,3.508-6.584,5.312-1.752,1.467-2.912,3.87-5.863,3.38-.408-.067-1.034.808-1.467,1.324-2.348,2.8-4.667,5.619-7.063,8.512l-1.223-1.384c-2.887,3.075-5.838,6.013-8.54,9.164-1.878,2.19-6.135.942-6.705,4.83-3.086.333-2.63,3.956-4.9,5.226-1.737.972-2.734,2.718-5.227,3.062-1.813.25-3.423,2.663-4.929,4.291-2.291,2.477-4.01,5.749-6.736,7.474-2.185,1.384-4.217,2.4-6.163,4.4-1.817,1.866-3.342,4.08-5.324,5.813-2.318,2.028-4.583,4.061-7.113,5.894-3.1,2.244-6.542,4.486-8.678,8.118a16.477,16.477,0,0,1-5.636,5.612c-2.476,1.458-3.757,3.709-5.57,5.628-1.721,1.82-4.127,2.971-6.044,4.632-2.016,1.746-3.593,4.971-5.75,5.354-3.275.58-2.414,3.622-4.332,4.811a23.125,23.125,0,0,0-4.576,4.463,20.2,20.2,0,0,1-8.095,5.652c.189-1.53-.15-3.509.684-4.488,1.439-1.688,3.817-2.543,5.411-4.138s2.5-3.874,4.1-5.468,4.081-2.382,5.445-4.1c3.346-4.219,7.635-7.407,11.36-11.2,3.944-4.012,7.86-8.059,11.948-11.923,7.1-6.706,13.941-13.762,21.615-19.743,5.024-3.916,9.034-8.85,14.05-12.579,9.371-6.964,17.346-15.543,26.848-22.361,5.3-3.8,9.838-8.639,14.758-12.966a248.46,248.46,0,0,1,22.955-18.268c2.605-1.794,4.5-4.582,6.924-6.686C493.823,280.706,495.276,280.638,496.458,280.26Z"/></svg>