<svg width="1120" height="1062" viewBox="0 0 1120 1062" fill="none" xmlns="http://www.w3.org/2000/svg">
<path d="M308.679 406.985L307.864 406.405L308.679 406.985C306.306 410.321 299.558 419.663 293.681 427.744C261.075 472.579 217.548 541.324 190.083 591.365C90.0409 773.643 29.1356 957.152 8.47741 1138.49C3.25104 1184.36 2.20613 1202.5 1.83483 1253.8C0.254411 1472.01 78.2819 1638.79 213.012 1706.33C250.421 1725.09 285.687 1734.76 329.941 1738.38C365.241 1741.28 380.622 1741.09 411.062 1737.38C512.384 1725.04 619.564 1677.22 730.057 1594.96C761.814 1571.31 776.737 1558.9 812.279 1526.56C890.435 1455.43 960.163 1373.73 1030.25 1271.14C1050.89 1240.93 1099.62 1159.51 1117.89 1124.69C1212.62 944.277 1266.68 773.787 1287.47 590.007C1292.95 541.606 1293.84 452.598 1289.3 408.079L1290.29 407.978L1289.3 408.079C1279.57 312.746 1258.54 238.999 1222.8 174.723C1173.11 85.3484 1094.28 25.596 1002.22 7.4394C992.284 5.47966 974.285 3.62541 956.286 2.42436C938.284 1.22319 920.384 0.682246 910.647 1.32818C809.184 8.05604 708.938 46.7245 596.859 122.458C540.905 160.265 468.496 223.196 414.407 281.038C378.877 319.031 328.742 378.757 308.679 406.985Z" stroke="#4D4D4D" stroke-width="2"/>
</svg>
